<mxfile host="Electron" modified="2023-11-20T11:45:26.455Z" agent="Mozilla/5.0 (Windows NT 10.0; Win64; x64) AppleWebKit/537.36 (KHTML, like Gecko) draw.io/22.1.2 Chrome/114.0.5735.289 Electron/25.9.4 Safari/537.36" etag="6kSNKD8b52eVHOEP2jDP" version="22.1.2" type="device">
  <diagram name="Page-1" id="NF_gy5pmsO5akwYxZwUg">
    <mxGraphModel dx="1036" dy="606" grid="1" gridSize="10" guides="1" tooltips="1" connect="1" arrows="1" fold="1" page="1" pageScale="1" pageWidth="850" pageHeight="1100" math="0" shadow="0">
      <root>
        <mxCell id="0" />
        <mxCell id="1" parent="0" />
        <mxCell id="1kIYOR_IbrMdeQiEGEu4-1" value="" style="rounded=1;whiteSpace=wrap;html=1;fillColor=#1ba1e2;fontColor=#ffffff;strokeColor=#006EAF;" vertex="1" parent="1">
          <mxGeometry x="120" y="40" width="210" height="60" as="geometry" />
        </mxCell>
        <mxCell id="1kIYOR_IbrMdeQiEGEu4-3" value="" style="ellipse;whiteSpace=wrap;html=1;aspect=fixed;fillColor=#1ba1e2;fontColor=#ffffff;strokeColor=#006EAF;" vertex="1" parent="1">
          <mxGeometry x="50" y="45" width="50" height="50" as="geometry" />
        </mxCell>
        <mxCell id="1kIYOR_IbrMdeQiEGEu4-5" value="" style="rounded=1;whiteSpace=wrap;html=1;fillColor=#a20025;fontColor=#ffffff;strokeColor=#6F0000;" vertex="1" parent="1">
          <mxGeometry x="120" y="140" width="640" height="310" as="geometry" />
        </mxCell>
        <mxCell id="1kIYOR_IbrMdeQiEGEu4-6" value="" style="rounded=1;whiteSpace=wrap;html=1;fillColor=#a20025;fontColor=#ffffff;strokeColor=#6F0000;" vertex="1" parent="1">
          <mxGeometry x="120" y="480" width="640" height="310" as="geometry" />
        </mxCell>
        <mxCell id="1kIYOR_IbrMdeQiEGEu4-8" value="" style="rounded=1;whiteSpace=wrap;html=1;fillColor=#1ba1e2;fontColor=#ffffff;strokeColor=#006EAF;" vertex="1" parent="1">
          <mxGeometry x="70" y="140" width="10" height="310" as="geometry" />
        </mxCell>
        <mxCell id="1kIYOR_IbrMdeQiEGEu4-9" value="" style="rounded=1;whiteSpace=wrap;html=1;fillColor=#1ba1e2;fontColor=#ffffff;strokeColor=#006EAF;" vertex="1" parent="1">
          <mxGeometry x="70" y="480" width="10" height="310" as="geometry" />
        </mxCell>
      </root>
    </mxGraphModel>
  </diagram>
</mxfile>
